<?xml version="1.0" encoding="UTF-8"?>
<svg width="176px" height="23px" viewBox="0 0 176 23" version="1.1" xmlns="http://www.w3.org/2000/svg" xmlns:xlink="http://www.w3.org/1999/xlink">
    <title>Logo</title>
    <g id="Symbols" stroke="none" stroke-width="1" fill="none" fill-rule="evenodd">
        <g id="Group-5" fill="#26364D">
            <path d="M44.1039677,15.9764613 C42.3212903,15.9764613 41.0284194,14.4831387 41.0284194,11.7644613 C41.0284194,9.02313871 42.2541935,7.4409129 44.2599677,7.4409129 C46.8004194,7.4409129 47.3355161,9.02313871 47.3355161,11.5417839 C47.3355161,14.0151387 46.7337419,15.9764613 44.1039677,15.9764613 L44.1039677,15.9764613 Z M49.2075161,1.00004194 L47.2461935,1.00004194 L47.2461935,7.24046129 C46.9564194,6.59381613 46.064871,5.79159032 44.0590968,5.79159032 C40.9390968,5.79159032 39,8.35426774 39,11.8311387 C39,15.2635581 40.7830968,17.6257839 43.7026452,17.6257839 C45.5524194,17.6257839 46.6892903,16.9346871 47.2461935,15.7537839 C47.2461935,16.1991387 47.2906452,17.0684613 47.3577419,17.3582355 L49.2297419,17.3582355 C49.2075161,16.2662355 49.2075161,15.2186871 49.2075161,14.1711387 L49.2075161,1.00004194 Z M54.4905903,8.35435161 C54.4905903,7.26235161 54.4461387,6.37122258 54.4234935,6.05880323 L52.5070419,6.05880323 C52.5070419,6.66099677 52.5292677,7.55212581 52.5292677,9.13435161 L52.5292677,17.3583194 L54.4905903,17.3583194 L54.4905903,11.8756742 C54.4905903,9.02322258 55.9612677,7.79744839 58.2790419,7.73077097 L58.2790419,5.79167419 C56.4070419,5.83612581 55.0697194,6.83922258 54.4905903,8.35435161 M58.6138548,17.3582355 L60.6645,17.3582355 L60.6645,14.0600097 L58.6138548,14.0600097 L58.6138548,17.3582355 Z M74.7052129,5.79154839 C72.7883419,5.79154839 71.7412129,6.72754839 71.1838903,7.73064516 L71.1838903,1 L69.2225677,1 L69.2225677,17.3581935 L71.1838903,17.3581935 L71.1838903,11.184871 C71.1838903,8.82264516 72.0754387,7.48532258 74.1034387,7.48532258 C75.7527613,7.48532258 76.5545677,8.55509677 76.5545677,10.4715484 L76.5545677,17.3581935 L78.5163097,17.3581935 L78.5163097,10.1373226 C78.5163097,6.77241935 76.5101161,5.79154839 74.7052129,5.79154839 M83.0634161,10.6943935 C83.2642871,8.71126452 84.1331903,7.32949032 86.1385452,7.32949032 C88.0554161,7.32949032 88.9914161,8.82239355 89.0136419,10.6943935 L83.0634161,10.6943935 Z M86.1611903,5.79171613 C82.7291903,5.79171613 81.0354161,8.46594194 81.0354161,11.8312645 C81.0354161,14.7285871 82.4838677,17.6254903 86.0274161,17.6254903 C89.1251903,17.6254903 90.3509645,15.6863935 90.7967387,14.2379419 L88.8131903,14.2379419 C88.4567387,15.0628129 87.8771903,15.9983935 86.0945129,15.9983935 C84.1780613,15.9983935 83.0189645,14.3494903 82.9963194,12.0539419 L90.9749645,12.0539419 C90.9971903,11.7645871 90.9971903,11.4743935 90.9971903,11.1183613 C90.9971903,8.71126452 89.8162871,5.79171613 86.1611903,5.79171613 L86.1611903,5.79171613 Z M93.5838548,3.42936452 L95.5451774,3.42936452 L95.5451774,1.00004194 L93.5838548,1.00004194 L93.5838548,3.42936452 Z M93.5838548,17.3582355 L95.5451774,17.3582355 L95.5451774,6.05913871 L93.5838548,6.05913871 L93.5838548,17.3582355 Z M104.370668,5.79154839 C102.186668,5.79154839 101.272894,6.95064516 100.827539,7.90887097 C100.827539,7.57464516 100.804894,6.39374194 100.737797,6.05909677 L98.843571,6.05909677 C98.8662161,6.92841935 98.8662161,7.93109677 98.8662161,8.91154839 L98.8662161,17.3581935 L100.827539,17.3581935 L100.827539,11.3857419 C100.827539,9.11241935 101.674216,7.48532258 103.813765,7.48532258 C105.529765,7.48532258 106.198216,8.62219355 106.198216,10.3381935 L106.198216,17.3581935 L108.159539,17.3581935 L108.159539,10.092871 C108.159539,7.08441935 106.510216,5.79154839 104.370668,5.79154839 M112.706771,10.6943935 C112.907642,8.71126452 113.776545,7.32949032 115.782319,7.32949032 C117.698771,7.32949032 118.634771,8.82239355 118.657416,10.6943935 L112.706771,10.6943935 Z M115.804545,5.79171613 C112.372545,5.79171613 110.678771,8.46594194 110.678771,11.8312645 C110.678771,14.7285871 112.127642,17.6254903 115.670771,17.6254903 C118.768965,17.6254903 119.994739,15.6863935 120.440094,14.2379419 L118.456965,14.2379419 C118.100513,15.0628129 117.520545,15.9983935 115.737868,15.9983935 C113.821416,15.9983935 112.662319,14.3494903 112.640094,12.0539419 L120.618319,12.0539419 C120.640965,11.7645871 120.640965,11.4743935 120.640965,11.1183613 C120.640965,8.71126452 119.460061,5.79171613 115.804545,5.79171613 L115.804545,5.79171613 Z M132.45331,6.05897097 L130.11331,6.05897097 C128.597761,7.73051935 126.101761,10.3380677 125.165761,11.4522935 L125.165761,1.00029355 L123.204439,1.00029355 L123.204439,17.3580677 L125.165761,17.3580677 L125.165761,13.3465194 L126.859116,11.7198419 L130.647987,17.3580677 L132.943535,17.3580677 L128.196858,10.4496161 L132.45331,6.05897097 Z M141.25649,12.2100258 C141.25649,14.260671 140.900039,16.0878 138.181361,16.0878 C136.776942,16.0878 135.974716,15.2411226 135.974716,14.0598 C135.974716,12.4775742 137.178265,11.8531548 139.429361,11.8531548 L141.25649,11.8531548 L141.25649,12.2100258 Z M143.173361,9.49134839 C143.173361,6.92825161 141.635587,5.79138065 138.872039,5.79138065 C135.618265,5.79138065 134.660039,7.57447742 134.503619,9.13447742 L136.398265,9.13447742 C136.599135,8.26557419 136.932942,7.32915484 138.805361,7.32915484 C140.922265,7.32915484 141.234265,8.53270323 141.234265,9.5358 L141.234265,10.4940258 L139.317813,10.4940258 C135.95291,10.4940258 133.968942,11.6531226 133.968942,14.1713484 C133.968942,15.8873484 135.105813,17.6255742 137.780039,17.6255742 C139.964039,17.6255742 140.878232,16.6224774 141.279135,15.8873484 C141.301361,16.5780258 141.368458,17.1127032 141.457361,17.3580258 L143.328942,17.3580258 C143.262684,17.0238 143.173361,15.9318 143.173361,14.8842516 L143.173361,9.49134839 Z M158.485265,5.79154839 C156.568394,5.79154839 155.498619,6.74977419 154.896845,7.81954839 C154.45149,6.59377419 153.359071,5.79154839 151.754619,5.79154839 C149.971523,5.79154839 148.991071,6.79464516 148.478619,7.79732258 C148.478619,7.21777419 148.433748,6.39374194 148.389716,6.05909677 L146.517297,6.05909677 C146.539942,6.97245161 146.539942,7.99819355 146.539942,8.97864516 L146.539942,17.3581935 L148.478619,17.3581935 L148.478619,11.0955484 C148.478619,8.95641935 149.347942,7.48532258 151.152845,7.48532258 C152.935942,7.48532258 153.337265,8.77819355 153.337265,10.2266452 L153.337265,17.3581935 L155.253297,17.3581935 L155.253297,10.872871 C155.253297,8.86709677 156.055942,7.48532258 157.905716,7.48532258 C159.666168,7.48532258 160.134168,8.86709677 160.134168,10.1595484 L160.134168,17.3581935 L162.051039,17.3581935 L162.051039,9.93687097 C162.051039,6.88354839 160.335039,5.79154839 158.485265,5.79154839 M170.36521,15.9764613 C168.002984,15.9764613 167.245629,14.3493645 167.245629,11.6977839 C167.245629,8.93381613 168.18121,7.46313871 170.52121,7.46313871 C172.437661,7.46313871 173.530081,9.08981613 173.530081,11.4969129 C173.530081,14.2826871 172.437661,15.9764613 170.36521,15.9764613 M171.034081,5.79159032 C169.095403,5.79159032 167.958532,6.68313871 167.334113,7.84223548 C167.334113,7.1066871 167.312306,6.43781613 167.267435,6.05913871 L165.37321,6.05913871 C165.395435,6.92846129 165.395435,7.8866871 165.395435,8.82226774 L165.395435,21.7933323 L167.334113,21.7933323 L167.334113,15.9538161 C167.846984,16.8680097 168.80479,17.6257839 170.632758,17.6257839 C173.374081,17.6257839 175.535435,15.4635903 175.535435,11.4075903 C175.535435,7.97559032 173.64121,5.79159032 171.034081,5.79159032" id="Combined-Shape"></path>
            <path d="M23.0657742,10.6579032 L17.9932581,2.76941935 L30.0060968,10.7782581 L23.0657742,10.6579032 Z M23.0657742,11.7943548 L30.0060968,11.6735806 L17.9932581,19.6824194 L23.0657742,11.7943548 Z M9.62880645,11.7943548 L14.7017419,19.6824194 L2.68848387,11.6735806 L9.62880645,11.7943548 Z M9.62880645,10.6579032 L2.68848387,10.7782581 L14.7017419,2.76941935 L9.62880645,10.6579032 Z M15.906129,19.9369677 L10.6163871,11.2257097 L15.906129,2.51529032 L15.7736129,11.2257097 L15.906129,19.9369677 Z M16.9209677,11.2257097 L16.788871,2.51529032 L22.0781935,11.2257097 L16.788871,19.9369677 L16.9209677,11.2257097 Z M32.2571935,10.4075484 L16.892871,0.165225806 C16.7276452,0.0549354839 16.5376774,0 16.3472903,0 C16.1573226,0 15.9669355,0.0549354839 15.802129,0.165225806 L0.437806452,10.4075484 C0.163967742,10.5903871 0,10.8973548 0,11.2257097 C0,11.5549032 0.163967742,11.861871 0.437806452,12.0442903 L15.802129,22.2870323 C15.9669355,22.3969032 16.1573226,22.4522581 16.3472903,22.4522581 C16.5376774,22.4522581 16.7276452,22.3969032 16.892871,22.2870323 L32.2571935,12.0442903 C32.5306129,11.861871 32.695,11.5549032 32.695,11.2257097 C32.695,10.8973548 32.5306129,10.5903871 32.2571935,10.4075484 L32.2571935,10.4075484 Z" id="symbol"></path>
        </g>
    </g>
</svg>